<svg width="272" height="379" viewBox="0 0 272 379" fill="none" xmlns="http://www.w3.org/2000/svg">
<g clip-path="url(#clip0_31_7669)">
<path d="M126.929 334.551C126.794 330.303 126.656 326.054 126.463 321.804C126.077 313.212 125.477 304.618 124.27 296.097C122.25 281.831 116.934 269.137 113.216 255.364C111.748 249.902 110.573 244.366 109.696 238.779C108.048 228.365 107.392 217.894 107.48 207.385C107.569 197.076 108.315 186.669 111.935 176.922C113.902 171.626 116.084 164.984 120.39 161.095C121.071 160.48 122.28 159.814 122.843 159.229C122.843 159.229 122.843 159.229 122.843 159.214C123.057 159.049 123.271 158.883 123.463 158.703C123.61 157.751 123.787 156.8 123.93 155.837C123.943 155.765 123.952 155.69 123.963 155.624C121.737 155.444 119.281 157.052 117.325 157.9C112.663 159.929 107.877 161.661 103.23 163.735C101.094 164.689 98.9222 165.689 96.8229 166.703C94.7834 167.696 93.1923 169.364 91.1336 170.362C88.8442 171.476 86.5505 172.581 84.2227 173.621C82.4629 174.411 80.6967 175.19 78.9434 175.995C80.1987 179.381 81.8261 182.616 83.7955 185.642C83.7336 185.856 83.6717 186.069 83.6033 186.296C81.8756 191.791 78.5056 196.536 76.2055 201.777C75.6417 203.058 75.1676 204.376 74.7106 205.681C75.7634 206.253 75.8061 207.539 76.1649 208.647C79.1335 217.845 74.2664 223.159 72.9295 231.765C71.8616 238.655 74.4244 244.887 74.1489 251.616C73.9631 255.958 71.5541 259.676 70.4372 263.774C69.9488 265.612 69.5779 267.48 69.3266 269.365C66.8322 287.324 62.7916 305.191 59.2763 323.006C58.4221 327.277 57.7024 331.884 56.6025 336.392C57.7366 350.171 57.8839 364.266 57.7771 378.193H126.848C127.151 371.97 127.377 365.74 127.397 359.508C127.422 351.117 127.196 342.91 126.929 334.551ZM111.68 310.438C110.683 308.21 111.994 305.235 114.585 305.054C115.777 304.971 116.507 305.013 117.513 305.791C119.649 307.456 118.749 310.181 117.259 311.948C115.768 313.714 112.473 312.198 111.68 310.438ZM119.693 352.038C118.213 353.791 114.901 352.288 114.115 350.528C113.118 348.298 114.429 345.325 117.015 345.144C118.209 345.061 118.948 345.103 119.945 345.881C122.083 347.547 121.18 350.272 119.693 352.038Z" fill="#BB001F"/>
<path d="M75.191 63.7895C75.3432 63.8861 75.4705 64.0172 75.5626 64.1721C75.6548 64.327 75.7092 64.5014 75.7215 64.6813C75.7337 64.8611 75.7035 65.0413 75.6333 65.2073C75.563 65.3733 75.4547 65.5204 75.317 65.6368C74.6315 66.1942 73.8456 66.2775 73.0127 66.1643C71.8637 66.0063 70.6635 65.9315 69.5188 65.8739C68.1605 65.8077 66.7958 65.7991 65.4354 65.7543C64.4488 65.718 62.7061 65.9038 61.9138 65.1819C60.9058 64.2593 61.7664 63.3602 62.8278 63.1403C63.7953 62.9438 64.8012 63.1403 65.7601 63.1851C66.4584 63.2129 67.1717 63.247 67.8786 63.2727C69.3885 63.3239 70.9005 63.2983 72.4104 63.3132C73.3351 63.3261 74.3752 63.2748 75.191 63.7895Z" fill="#F7C043"/>
<path d="M65.7494 41.8928C67.0308 41.974 66.9411 43.3878 66.1573 44.0285C66.0484 44.4556 65.3736 44.5773 65.0276 44.8357C64.5108 45.2223 61.6811 47.4134 61.2411 47.8833C60.846 48.3104 60.374 48.524 59.9042 48.8529C59.2891 49.2928 57.2454 50.8518 56.5897 49.6409C56.3954 49.2821 56.5299 48.8123 56.7221 48.4919C57.1493 47.785 57.9416 47.2746 58.6442 46.8966C59.3105 46.5442 60.0601 46.0616 60.5342 45.47C61.0083 44.8785 63.8594 42.9073 64.4083 42.4801C64.7927 42.1619 65.2412 41.8565 65.7494 41.8928Z" fill="#F7C043"/>
<path d="M65.7473 87.0977C65.7874 87.2735 65.7856 87.4562 65.742 87.6311C65.6984 87.806 65.6143 87.9683 65.4964 88.1046C65.3785 88.241 65.2302 88.3478 65.0634 88.4162C64.8967 88.4847 64.7161 88.5129 64.5364 88.4987C63.6565 88.4133 63.0415 87.9199 62.5268 87.2515C61.822 86.3332 61.0318 85.4383 60.2502 84.5883C59.3319 83.5825 58.3687 82.6193 57.4376 81.6284C56.7584 80.9065 55.3895 79.8173 55.3361 78.7431C55.2656 77.3784 56.5128 77.3464 57.4205 77.938C58.247 78.474 58.8193 79.3283 59.4728 80.0309C59.9512 80.5456 60.4339 81.0688 60.9165 81.5856C61.9544 82.6834 63.0522 83.7213 64.1072 84.804C64.7585 85.4597 65.5273 86.1623 65.7473 87.0977Z" fill="#F7C043"/>
<path d="M51.4321 65.4338C51.746 67.4007 49.4801 67.3323 48.0471 67.249C48.4565 66.3876 49.0337 65.6165 49.7449 64.981C50.4497 64.3702 51.2591 64.3446 51.4321 65.4338Z" fill="#FFBC3B"/>
<path d="M47.8741 91.5419C47.8741 91.6017 47.6712 91.512 47.5602 91.4736C47.3466 91.4074 47.1331 91.3262 46.9195 91.2429C46.4902 91.0517 46.0459 90.896 45.5911 90.7774C43.2612 90.2264 40.9419 89.3935 38.6631 88.6674H38.5991C38.5991 88.0267 38.6311 87.3539 38.5991 86.7111C38.5713 86.2989 38.4175 85.8312 38.4026 85.3892H38.4368C38.4368 85.6027 42.629 87.0357 43.022 87.1553C44.5468 87.6124 46.0994 87.9135 47.526 88.6375C47.7075 88.7293 47.9531 88.9663 48.1283 88.9044H48.2073C48.2136 89.7955 48.1457 90.6856 48.0044 91.5654L47.8741 91.5419Z" fill="#DEDEDE"/>
<path d="M47.5602 91.4736C47.6712 91.5121 47.8741 91.6018 47.8741 91.542L48.0001 91.5633C47.9638 91.794 47.9168 92.0225 47.8634 92.2489C47.6947 92.9387 47.5901 93.6135 47.2398 94.2371C47.1409 94.4116 47.0325 94.5806 46.9152 94.7433L46.8917 94.7283C46.2745 94.4806 45.6467 94.124 44.9953 93.9104C42.9664 93.2462 40.9162 92.3557 38.9515 91.5206H38.7379C38.7521 90.9275 38.73 90.3341 38.6717 89.7438C38.627 89.386 38.6049 89.0258 38.6055 88.6653H38.6695C40.9483 89.3914 43.2676 90.2243 45.5975 90.7753C46.0523 90.8939 46.4966 91.0496 46.9259 91.2409C47.1224 91.3263 47.3509 91.4074 47.5602 91.4736Z" fill="#DEDEDE"/>
<path d="M41.2708 84.3086H41.2409C41.0786 81.9594 40.3439 79.7041 39.9873 77.3763C39.5431 74.4548 39.274 71.3517 38.2553 68.5604C38.0902 68.1142 37.9027 67.6765 37.6936 67.2491L38.1699 67.2214C38.7437 67.1575 39.3059 67.0138 39.8399 66.7942C40.4178 66.5568 40.9433 66.2077 41.3861 65.767C41.8132 65.3805 42.3493 65.0174 42.6675 64.5326L42.7721 64.366C43.5266 65.4901 44.6228 66.3415 45.8987 66.7942C46.4318 67.0144 46.9933 67.1582 47.5666 67.2214L48.0429 67.2491C47.8318 67.6753 47.645 68.1131 47.4833 68.5604C46.4604 71.3517 46.202 74.4548 45.7471 77.3763C45.4267 79.482 44.6793 81.6347 44.6536 83.7725C44.6536 83.969 44.6835 84.1697 44.6857 84.3662C43.5452 84.3748 42.3963 84.3406 41.2708 84.3086Z" fill="#FFBC3B"/>
<path d="M46.8919 94.7199L46.9154 94.7348C46.6481 95.1123 46.3305 95.4514 45.9714 95.7429C45.0958 96.4519 43.6991 96.5501 42.6313 96.4113C41.996 96.3167 41.3892 96.0844 40.8531 95.7306C40.3171 95.3769 39.8649 94.9102 39.5282 94.3633C39.1725 93.8075 38.9301 93.187 38.8149 92.5373C38.7636 92.1987 38.7379 91.8568 38.738 91.5143H38.9516C40.9164 92.3493 42.9666 93.2399 44.9954 93.9041C45.6468 94.1241 46.2683 94.4807 46.8919 94.7199Z" fill="#DEDEDE"/>
<path d="M43.5561 60.9127C43.5817 62.0873 43.3874 63.3537 42.7766 64.3746C42.2269 63.5587 41.8538 62.6371 41.681 61.6687C41.5379 60.8849 41.5379 59.4455 42.3687 58.9863C43.1994 58.5272 43.5497 60.4706 43.5561 60.9127Z" fill="#FFBC3B"/>
<path d="M43.4192 33.1922C43.6883 33.5424 43.368 34.1468 43.3573 34.5782C43.3445 35.2189 43.3253 38.8025 43.4235 39.4389C43.5132 40.0113 43.3893 40.5067 43.3659 41.0898C43.3317 41.8458 43.2997 44.4128 41.9414 44.1864C41.5399 44.1202 41.2516 43.723 41.1192 43.3749C40.8223 42.6039 40.9056 41.6664 41.053 40.8698C41.1854 40.1287 41.2665 39.2382 41.0935 38.5035C40.9291 37.8009 41.132 34.3049 41.1213 33.6044C41.1213 33.1196 41.1491 32.5793 41.4886 32.1991C42.3472 31.2381 43.3979 32.1842 43.4192 33.1922Z" fill="#F7C043"/>
<path d="M41.2713 84.3086C41.2713 84.3388 41.2713 84.3561 41.2454 84.3864C41.2454 84.3604 41.2454 84.3345 41.2454 84.3086H41.2713Z" fill="#8CC295"/>
<path d="M39.0348 84.2551L38.7828 84.3811L38.7209 84.191C38.4192 83.3371 38.0201 82.5209 37.5313 81.7585C36.2969 79.8664 34.2339 78.9822 32.5532 77.6133C28.5061 74.2966 25.9925 69.0601 25.7191 63.8C25.2813 55.2938 31.7715 47.2531 40.4956 47.0566C44.3055 46.9691 48.5811 47.787 51.6778 50.0657C54.7412 52.2714 56.9983 55.4194 58.1039 59.0287C59.2096 62.638 59.1031 66.5101 57.8006 70.0531C57.1559 71.8528 56.2359 73.5415 55.0734 75.0591C53.8262 76.6907 51.9746 77.6816 50.6996 79.2342C49.5421 80.6395 47.9233 82.0575 47.7653 83.9903L47.7439 84.2038L47.6286 84.2508C46.6633 84.3362 45.6809 84.3683 44.69 84.3747C44.69 84.1782 44.6579 83.9775 44.6579 83.781C44.675 81.6453 45.431 79.4905 45.7514 77.3848C46.1977 74.4632 46.4647 71.3601 47.4876 68.5689C47.6493 68.1216 47.8361 67.6838 48.0472 67.2576C49.4802 67.3409 51.7461 67.4092 51.4322 65.4423C51.2592 64.3531 50.4498 64.3745 49.745 64.9895C49.0338 65.625 48.4565 66.3961 48.0472 67.2576L47.5709 67.2298C46.9976 67.1666 46.4361 67.0228 45.903 66.8027C44.6271 66.35 43.5309 65.4986 42.7764 64.3745C43.3872 63.3537 43.5816 62.0872 43.5559 60.9126C43.5559 60.4706 43.2121 58.525 42.3685 58.9906C41.525 59.4561 41.5378 60.8891 41.6809 61.6729C41.8536 62.6413 42.2268 63.5629 42.7764 64.3788L42.6718 64.5453C42.3493 65.0301 41.8175 65.3996 41.3904 65.7797C40.9476 66.2205 40.4221 66.5695 39.8442 66.807C39.3102 67.0265 38.748 67.1703 38.1741 67.2341L37.6979 67.2619C37.2853 66.3995 36.7044 65.6284 35.9894 64.9938C35.2846 64.383 34.4774 64.3531 34.3022 65.4466C33.9904 67.4135 36.2542 67.3451 37.6894 67.2619C37.8985 67.6892 38.086 68.1269 38.251 68.5731C39.2697 71.3644 39.5324 74.4675 39.983 77.389C40.3397 79.7169 41.0743 81.9806 41.2366 84.3213C40.502 84.2871 39.7545 84.2551 39.0348 84.2551Z" fill="#F7C043"/>
<path d="M38.4326 85.387H38.3984C38.378 85.1999 38.4022 85.0106 38.469 84.8347C38.5358 84.6587 38.6433 84.5011 38.7828 84.3747L39.0348 84.2487C39.7545 84.2615 40.4934 84.285 41.2409 84.3064C41.2409 84.332 41.2409 84.3577 41.2409 84.3833C41.2708 84.3534 41.258 84.3363 41.2665 84.3064C42.392 84.3384 43.541 84.3726 44.6836 84.3641C45.6745 84.3641 46.6569 84.3256 47.6222 84.2402L47.7375 84.1932C48.1796 84.4772 48.2031 85.1243 48.2031 85.5942C48.2031 86.2349 48.1668 86.8756 48.1796 87.5163C48.1924 87.9776 48.1988 88.4431 48.1967 88.9044H48.1176C47.9382 88.9664 47.6905 88.7293 47.5154 88.6375C46.0888 87.9135 44.5255 87.6124 43.0114 87.1553C42.6248 87.0315 38.4326 85.6027 38.4326 85.387Z" fill="#DEDEDE"/>
<path d="M35.9936 64.981C36.7086 65.6156 37.2895 66.3867 37.7021 67.249C36.267 67.3323 34.0032 67.4007 34.315 65.4338C34.4816 64.3446 35.2889 64.3702 35.9936 64.981Z" fill="#FFBC3B"/>
<path d="M26.8939 77.938C27.8037 77.3464 29.0487 77.3784 28.9804 78.7431C28.927 79.8109 27.5581 80.9065 26.8789 81.6284C25.9457 82.6193 24.9846 83.5825 24.0642 84.5883C23.2889 85.4426 22.4923 86.3332 21.7876 87.2515C21.275 87.9199 20.6578 88.4133 19.7801 88.4987C19.6003 88.5128 19.4198 88.4845 19.2529 88.4161C19.0861 88.3476 18.9377 88.2409 18.8197 88.1046C18.7017 87.9683 18.6173 87.8061 18.5734 87.6312C18.5295 87.4564 18.5274 87.2736 18.5671 87.0977C18.7806 86.1623 19.558 85.4597 20.2094 84.804C21.2772 83.7362 22.3621 82.6834 23.4 81.5856C23.8826 81.0688 24.3674 80.5456 24.8437 80.0309C25.495 79.3283 26.0695 78.474 26.8939 77.938Z" fill="#F7C043"/>
<path d="M24.976 49.3419C25.7235 50.1256 25.9157 51.3579 24.566 51.5394C23.4981 51.6782 22.1762 50.5335 21.3454 49.9996C20.2007 49.2628 19.0774 48.494 17.9284 47.7722C16.9503 47.1614 15.9252 46.5442 14.8937 46.021C14.1441 45.6365 13.5461 45.1176 13.2984 44.2697C13.2528 44.0964 13.2483 43.9148 13.2852 43.7393C13.3221 43.5639 13.3993 43.3995 13.5109 43.2592C13.6224 43.1188 13.7651 43.0064 13.9277 42.9309C14.0902 42.8553 14.2681 42.8187 14.4473 42.8239C15.4084 42.8666 16.2413 43.4966 17.0101 44.0177C18.2616 44.872 19.4874 45.7476 20.7581 46.5655C21.3518 46.95 21.9562 47.328 22.5478 47.7017C23.3529 48.2207 24.2969 48.6286 24.976 49.3419Z" fill="#F7C043"/>
<path d="M21.4949 63.1402C22.5627 63.3538 23.417 64.2593 22.409 65.1819C21.6167 65.9037 19.8761 65.7179 18.8895 65.7542C17.5291 65.7991 16.1644 65.8076 14.804 65.8738C13.6529 65.9315 12.4548 66.0062 11.3122 66.1643C10.4793 66.2775 9.6913 66.1942 9.00362 65.6368C8.86691 65.5197 8.75948 65.3723 8.68993 65.2064C8.62039 65.0404 8.59065 64.8604 8.60311 64.6809C8.61556 64.5014 8.66985 64.3272 8.76165 64.1724C8.85345 64.0176 8.98019 63.8865 9.13176 63.7895C9.94757 63.2748 10.9898 63.3217 11.9081 63.3132C13.418 63.2983 14.93 63.3239 16.4399 63.2726C17.1468 63.247 17.8558 63.2128 18.5584 63.1851C19.5152 63.1445 20.5211 62.9437 21.4949 63.1402Z" fill="#F7C043"/>
<path d="M144.448 145.813V145.674C150.684 145.46 157.966 141.83 163.327 137.669L163.438 137.81C163.211 139.613 163.318 141.595 163.184 143.211C162.919 146.383 162.756 149.661 162.996 152.856C159.29 153.069 155.707 154.03 151.873 153.723C147.469 153.332 143.142 152.32 139.021 150.716C135.497 149.345 132.364 147.07 129.366 144.809C127.324 143.263 125.714 141.422 123.963 139.568C123.651 139.239 123.322 138.803 122.974 138.359C125.009 139.502 127.083 140.587 129.191 141.691C131.775 143.045 134.54 143.942 137.362 144.711C139.673 145.352 142.051 145.722 144.448 145.813Z" fill="#A76743"/>
<path d="M117.513 305.791C119.649 307.456 118.749 310.182 117.259 311.948C115.768 313.714 112.466 312.198 111.681 310.438C110.683 308.21 111.994 305.235 114.585 305.054C115.777 304.971 116.513 305.013 117.513 305.791Z" fill="#37628F"/>
<path d="M225.888 378.182H169.383C169.462 369.524 169.575 360.805 168.804 352.222C168.164 345.003 167.769 337.753 167.963 330.504C168.123 324.55 167.651 318.513 167.852 312.516C168.066 305.806 169.518 299.134 169.793 292.396C170.007 287.371 170.861 282.51 171.929 277.598C173.148 271.962 173.071 266.156 174.611 260.535C176.17 254.858 177.815 249.216 178.947 243.4C179.972 238.113 180.602 232.78 181.684 227.518C184.143 215.59 184.202 203.522 182.255 191.507C181.687 188 181.443 184.51 180.574 181.042C178.865 174.259 175.779 167.647 170.483 162.934C168.525 161.191 165.842 160.348 163.931 158.727C163.752 157.779 163.544 156.837 163.371 155.876C163.356 155.803 163.343 155.732 163.333 155.662C165.55 155.412 168.057 156.944 170.039 157.73C174.763 159.609 179.602 161.187 184.311 163.113C186.479 163.998 188.679 164.929 190.799 165.877C192.869 166.804 194.522 168.423 196.6 169.354C198.923 170.396 201.253 171.425 203.611 172.393C208.628 174.452 213.7 176.438 218.402 179.165C224.643 182.795 230.509 186.405 235.487 191.765C240.128 196.782 243.816 203.402 247.033 209.397C250.591 216.03 253.273 223.447 255.678 230.567C256.259 232.293 257.113 234.031 257.45 235.819C258.091 239.185 258.305 242.696 258.817 246.1C259.394 249.944 259.92 253.8 260.395 257.666C261.367 265.519 262.157 273.395 262.839 281.278C263.708 291.33 263.599 301.445 264.677 311.482C265.73 321.306 269.566 330.135 271.223 339.782C272.291 346.039 271.046 352.316 270.638 358.575C270.424 361.945 271.657 365.196 271.616 368.555C271.578 371.784 270.713 374.94 270.623 378.18L225.888 378.182Z" fill="#BB001F"/>
<path d="M42.7744 198.276C42.437 196.681 42.2298 195.073 41.9202 193.448C41.6041 191.739 41.2175 190.031 40.831 188.322C39.2207 181.213 38.0077 174.592 40.2501 167.459C42.264 161.052 45.7558 155.197 47.2849 148.636C48.3335 144.138 48.0836 139.619 47.9384 135.034C47.7547 129.415 48.0473 123.777 48.0815 118.163C48.1049 114.229 47.6543 108.512 51.5455 106.124C52.6517 105.447 53.3244 105.434 54.5054 105.968C57.8776 107.491 58.5119 112.477 58.6571 115.67C59.065 124.612 58.7297 133.524 58.6934 142.475C58.6934 142.959 58.7831 143.258 58.8023 143.7C60.0287 143.647 61.2555 143.797 62.4329 144.145C67.6503 145.716 71.189 150.351 74.3924 154.539C75.1207 151.48 76.8164 147.779 80.0134 146.703C80.9851 146.376 81.818 146.148 82.7897 146.502C84.2591 147.043 85.6088 147.955 86.3093 149.392C87.8213 152.482 86.258 156.335 85.5767 159.444C85.1069 161.591 84.5324 163.696 84.5452 165.932C84.5452 168.369 84.9596 170.78 85.0194 173.215C85.0685 175.192 85.0578 177.187 84.9104 179.169C84.7527 181.583 84.3184 183.972 83.6162 186.287C81.8885 191.782 78.5185 196.527 76.2184 201.768C75.6546 203.05 75.1805 204.367 74.7235 205.672C73.3652 209.45 72.0411 213.132 68.5878 215.776C64.0432 219.265 57.9609 218.125 53.3415 215.409C50.8165 213.925 48.5919 211.982 46.783 209.679C45.7771 208.397 45.4354 207.492 45.1471 205.946C44.7712 203.923 43.791 201.99 43.2144 200.019C43.0421 199.441 42.8954 198.86 42.7744 198.276Z" fill="#9F6341"/>
<path d="M156.715 109.77C157.782 112.407 155.459 115.371 153.725 117.161C150.835 120.13 147.059 121.859 142.859 121.308C140.494 121.001 138.613 120.473 136.601 119.151C134.78 117.953 133.06 116.52 131.76 114.761C130.743 113.383 129.938 110.878 131.081 109.332C132.027 108.05 133.842 107.606 135.352 107.764C136.755 107.907 138.194 107.929 139.602 108.031C140.915 108.101 142.231 108.094 143.544 108.012C145.265 107.933 147 108.012 148.71 107.798C150.274 107.585 151.803 106.944 153.394 107.292C154.861 107.606 156.121 108.313 156.715 109.77Z" fill="white"/>
<path d="M89.8181 89.1349C89.5768 87.4264 89.391 85.7179 89.1774 84.0329C88.9638 82.1813 88.8015 80.2805 88.2271 78.4802C87.0738 74.8667 84.8399 71.7209 83.612 68.1373C83.0353 66.4545 82.7064 64.9232 82.7299 63.1357C82.7598 61.1923 83.0161 59.2638 83.1848 57.3289C83.4625 54.0934 84.1395 50.9049 84.8933 47.7506C85.8907 43.5989 87.3856 39.3063 86.9371 34.9945C86.8837 34.4947 86.8197 33.9971 86.7556 33.4995C86.3434 30.2448 87.4433 27.8337 88.9318 25.036C91.2276 20.7135 94.6532 16.707 99.0462 14.4006C103.873 11.8698 109.767 11.0134 114.811 8.82442C116.978 7.8785 119.064 6.75786 121.05 5.47362C121.863 4.94825 122.483 4.27126 123.339 3.82704C124.631 3.15859 125.998 2.614 127.326 2.04379C128.933 1.3504 130.613 0.841014 132.334 0.525356C137.634 -0.387428 143.071 -0.0954591 148.243 1.37961C153.219 2.80621 158.387 5.86444 159.619 11.2676C159.935 12.66 160.977 12.5276 162.242 12.5276C165.979 11.6734 169.99 12.5276 173.315 14.3514C178.154 17.0018 179.788 21.6126 182.391 26.0974C184.704 30.0846 187.944 33.4162 190.772 37.0212C194.374 41.6106 197.119 46.7917 196.226 52.8035C195.799 55.6033 195.372 58.2323 195.466 61.0428C195.553 63.9024 194.184 67.14 193.477 69.88C193.014 71.6547 192.837 73.5789 192.149 75.2533C190.485 79.2533 190.214 83.4712 190.404 87.7296C190.417 88.0393 190.43 88.349 190.449 88.6608C190.488 89.8006 190.457 90.9418 190.355 92.0778C190.322 92.8866 190.178 93.6871 189.928 94.4569C189.685 95.1275 189.123 96.1654 188.307 96.2786C185.64 96.6737 186.152 88.9277 186.112 87.5011C185.977 82.8027 185.144 77.5299 182.434 73.5448C181.027 71.4775 180.164 68.8613 179.587 66.431C178.947 63.7379 178.778 61.2008 178.78 58.4544C178.78 54.1831 179.094 49.8649 176.805 45.978C174.712 42.4265 170.413 40.8525 166.489 40.5621C165.548 40.4916 164.95 40.5514 164.029 40.4959C157.682 40.1136 151.429 40.5514 145.528 43.0308C143.654 43.7934 141.641 44.1571 139.619 44.0987C134.446 44.0047 129.554 41.9374 124.543 40.8952C122.145 40.3942 119.687 40.236 117.244 40.4254C114.662 40.6026 112.071 40.7628 109.925 42.4136C107.99 43.9086 106.668 46.0442 105.919 48.3486C105.418 49.9462 105.091 51.593 104.943 53.2605C104.729 55.347 105.336 57.3332 105.156 59.3983C104.857 62.999 104.195 66.4459 102.453 69.6494C102 70.4823 101.69 71.3728 101.31 72.2356C100.964 73.0173 100.443 73.5918 99.9773 74.3008C98.9565 75.8534 97.8246 77.3611 97.1156 79.0931C95.5032 83.0462 96.5197 87.3773 96.5774 91.4798C96.603 93.1627 96.5774 94.9929 95.4818 96.3747C94.3392 97.8013 92.8123 97.4062 91.7231 96.1248C90.5848 94.7922 90.4588 93.0965 90.1726 91.4478C90.0488 90.6618 89.9249 89.9037 89.8181 89.1349Z" fill="#201816"/>
<path d="M163.333 155.662C163.343 155.735 163.356 155.806 163.371 155.876C163.297 155.831 163.224 155.839 163.2 155.675C163.243 155.671 163.301 155.666 163.333 155.662Z" fill="#8CC295"/>
<path d="M165.304 83.1426C165.595 84.6375 165.108 86.2414 164.281 87.4907C163.361 88.8789 161.334 89.0583 159.826 88.644C156.461 87.7214 155.47 83.732 157.823 81.2269C159.081 79.89 161.212 78.9396 162.972 79.8708C164.055 80.4431 165.074 81.953 165.304 83.1426Z" fill="#2B1A0F"/>
<path d="M119.948 345.881C122.083 347.547 121.182 350.272 119.696 352.038C118.209 353.804 114.903 352.288 114.117 350.528C113.12 348.298 114.431 345.326 117.018 345.144C118.209 345.061 118.948 345.103 119.948 345.881Z" fill="#37628F"/>
<path d="M76.167 208.634C79.1356 217.833 74.2685 223.146 72.9316 231.753C71.8637 238.642 74.4265 244.874 74.151 251.603C73.9652 255.945 71.5562 259.663 70.4393 263.762C69.951 265.6 69.58 267.467 69.3288 269.353C66.8343 287.311 62.7937 305.178 59.2785 322.993C58.4242 327.265 57.7045 331.871 56.6047 336.379C55.2101 342.097 53.2197 347.649 49.6574 352.128C41.2003 362.759 20.867 366.885 10.1312 357.089C3.72427 351.239 1.25761 341.926 0.384135 333.597C-1.55502 315.121 4.01471 295.333 10.1931 278.139C12.3586 272.122 15.2802 266.412 17.4841 260.413C19.5656 254.847 20.9292 249.038 21.5418 243.127C21.969 238.892 22.977 234.745 25.0058 230.98C27.3871 226.563 31.5046 223.387 32.9589 218.448C34.9365 211.729 33.6658 203.942 40.5127 199.607C41.2794 199.122 42.1592 198.879 42.7594 198.279C42.8818 198.86 43.0242 199.438 43.1865 200.015C43.7631 201.986 44.7434 203.919 45.1192 205.941C45.4075 207.488 45.7492 208.391 46.7551 209.674C48.5641 211.977 50.7887 213.921 53.3136 215.404C57.933 218.114 64.0153 219.261 68.5599 215.772C72.0132 213.128 73.3373 209.446 74.6956 205.668C75.7741 206.24 75.8168 207.526 76.167 208.634Z" fill="#BB001F"/>
<path d="M122.794 156.013C122.794 155.861 122.794 155.714 122.794 155.564C122.956 152.545 122.96 149.52 122.807 146.5C122.717 144.991 122.572 143.485 122.348 141.992C122.252 141.351 122.049 140.728 121.936 140.126C121.833 139.562 121.989 138.693 121.596 138.227L121.876 137.744C122.235 137.958 122.598 138.159 122.963 138.366C123.311 138.81 123.64 139.246 123.952 139.575C125.703 141.422 127.313 143.263 129.359 144.809C132.349 147.071 135.491 149.345 139.014 150.716C143.135 152.32 147.462 153.332 151.867 153.723C155.711 154.031 159.284 153.082 162.989 152.856C163.027 153.409 163.079 153.958 163.147 154.503C163.194 154.893 163.254 155.278 163.322 155.662C163.279 155.662 163.232 155.662 163.19 155.679C163.213 155.844 163.286 155.835 163.361 155.88C163.534 156.841 163.741 157.783 163.92 158.731C164.192 160.034 164.308 161.365 164.264 162.695C164.116 165.21 163.453 167.669 162.316 169.918C160.1 174.37 156.223 178.061 151.572 179.87C150.656 180.226 149.748 180.636 148.819 180.961C147.101 181.537 145.289 181.78 143.48 181.679C141.667 181.562 139.871 181.262 138.117 180.786C135.256 180.023 132.868 179.242 130.429 177.459C126.762 174.768 123.922 170.838 122.777 166.409C122.336 164.856 122.289 163.218 122.638 161.642C122.789 160.847 122.861 160.04 122.852 159.231C122.85 158.148 122.775 157.08 122.794 156.013Z" fill="#9F6341"/>
<path d="M169.281 66.286C169.996 67.4499 169.334 68.7014 168.049 68.8915C166.848 69.0709 165.676 68.5476 164.57 68.1632C164.066 67.986 163.523 67.7767 163.013 67.6528C162.372 67.4969 161.755 67.6955 161.116 67.6763C159.275 67.6186 157.648 68.3277 155.929 68.8744C155.472 69.0175 154.887 69.0709 154.434 68.8061C152.86 67.9006 154.092 66.3608 155.04 65.5172C155.643 64.9598 156.351 64.5285 157.123 64.2486C158.19 63.845 159.414 63.3944 160.54 63.2321C161.522 63.0614 162.522 63.0212 163.515 63.1125C165.518 63.3388 168.187 64.5006 169.281 66.286Z" fill="#201816"/>
<path d="M128.61 66.286C129.327 67.45 128.663 68.7015 127.375 68.8915C126.175 69.0709 125.007 68.5477 123.901 68.1633C123.397 67.986 122.854 67.7767 122.342 67.6529C121.701 67.497 121.084 67.6956 120.443 67.6763C118.602 67.6187 116.977 68.3277 115.256 68.8744C114.803 69.0175 114.218 69.0709 113.761 68.8061C112.187 67.9006 113.417 66.3608 114.365 65.5172C114.968 64.9594 115.677 64.528 116.449 64.2487C117.517 63.845 118.741 63.3944 119.866 63.2321C120.845 63.0645 121.842 63.0264 122.831 63.1189C124.836 63.3389 127.51 64.5007 128.61 66.286Z" fill="#201816"/>
<path d="M125.255 83.1426C125.545 84.6375 125.058 86.2414 124.229 87.4907C123.309 88.8789 121.282 89.0583 119.775 88.644C116.411 87.7214 115.42 83.732 117.771 81.2269C119.031 79.89 121.161 78.9396 122.92 79.8708C124.005 80.4431 125.024 81.953 125.255 83.1426Z" fill="#2B1A0F"/>
<path d="M122.974 138.366C122.609 138.152 122.246 137.954 121.887 137.744C119.802 136.548 117.759 135.275 115.753 133.857C111.804 131.062 107.576 127.865 104.661 123.957C102.935 121.646 101.15 119.431 99.3452 117.172C97.7392 115.16 96.7013 112.764 95.1465 110.718C93.4936 108.539 91.6313 108.193 89.3334 106.893C86.9842 105.564 84.7973 103.751 83.2254 101.554C82.6104 100.7 81.9654 100.059 81.534 99.0871C81.0425 98.0541 80.6361 96.9828 80.3188 95.8837C79.7315 93.6519 79.7016 91.2494 80.5965 89.0902C80.9899 88.1982 81.6095 87.4244 82.3939 86.8453C83.1782 86.2662 84.1002 85.9019 85.0685 85.7885C87.6163 85.5344 88.4855 87.3796 89.8181 89.1223C89.9249 89.8911 90.0424 90.6556 90.1769 91.4223C90.4631 93.071 90.5891 94.7667 91.7274 96.0994C92.8166 97.3808 94.3435 97.7758 95.4861 96.3492C96.5924 94.9675 96.6073 93.1458 96.5817 91.4544C96.524 87.3412 95.5139 83.0101 97.1199 79.0677C97.8289 77.3357 98.9608 75.828 99.9816 74.2753C100.447 73.5663 100.968 72.994 101.314 72.2102C101.694 71.3559 102.004 70.4568 102.457 69.6239C104.199 66.4205 104.862 62.9714 105.161 59.3729C105.334 57.3077 104.733 55.3152 104.947 53.2351C105.095 51.5675 105.423 49.9208 105.923 48.3231C106.666 46.0273 107.988 43.8768 109.923 42.3968C112.069 40.7459 114.66 40.5857 117.242 40.4085C119.685 40.2191 122.143 40.3773 124.541 40.8783C129.552 41.9291 134.444 43.9964 139.617 44.0818C141.639 44.1402 143.652 43.7765 145.526 43.014C151.429 40.5345 157.68 40.0967 164.027 40.479C164.948 40.5345 165.546 40.479 166.487 40.5452C170.411 40.8399 174.71 42.4096 176.802 45.9611C179.092 49.848 178.784 54.1641 178.778 58.4375C178.778 61.1839 178.944 63.7211 179.585 66.4141C180.162 68.8444 181.025 71.4606 182.432 73.5279C185.142 77.513 185.975 82.7773 186.11 87.4842C186.15 88.9108 185.638 96.6674 188.305 96.2617C189.121 96.1399 189.682 95.1106 189.926 94.44C190.176 93.6702 190.32 92.8697 190.353 92.0609C190.455 90.9249 190.486 89.7837 190.447 88.6439C190.428 88.3321 190.415 88.0224 190.402 87.7127H190.528C192.788 84.3299 197.661 86.079 199.004 89.3123C199.929 91.5398 199.895 94.0107 199.291 96.3236C198.962 97.4541 198.542 98.5561 198.035 99.6189C197.591 100.625 196.924 101.285 196.292 102.169C194.667 104.433 192.399 106.308 189.981 107.674C188.2 108.687 186.319 109.5 184.495 110.425L184.365 110.368C182.054 115.645 179.201 121.112 175.66 125.385C172.884 128.732 169.514 132.031 166.376 135.049C165.409 135.973 164.394 136.847 163.337 137.667C157.977 141.838 150.694 145.467 144.458 145.672V145.81C142.062 145.722 139.684 145.354 137.372 144.715C134.551 143.946 131.785 143.049 129.201 141.695C127.083 140.593 125.009 139.508 122.974 138.366ZM168.057 68.8914C169.338 68.7013 170.005 67.4499 169.289 66.2859C168.187 64.5006 165.518 63.3388 163.504 63.1188C162.514 63.0261 161.517 63.0642 160.537 63.232C159.414 63.4028 158.188 63.8449 157.12 64.2486C156.349 64.5285 155.641 64.9598 155.038 65.5171C154.09 66.3607 152.858 67.9005 154.432 68.806C154.893 69.0708 155.478 69.0196 155.927 68.8743C157.635 68.3276 159.273 67.6186 161.114 67.6762C161.755 67.6955 162.376 67.4969 163.011 67.6528C163.521 67.7766 164.063 67.9859 164.567 68.1632C165.684 68.5476 166.857 69.0708 168.057 68.8914ZM164.281 87.4906C165.108 86.2413 165.595 84.6417 165.304 83.1425C165.074 81.9529 164.055 80.4431 162.972 79.8707C161.212 78.9396 159.081 79.8899 157.823 81.2268C155.474 83.7255 156.461 87.7213 159.826 88.6439C161.334 89.0582 163.361 88.8788 164.281 87.4906ZM153.718 117.161C155.459 115.371 157.776 112.407 156.708 109.77C156.115 108.313 154.855 107.606 153.392 107.288C151.801 106.942 150.271 107.591 148.708 107.794C147 108.008 145.263 107.933 143.542 108.008C142.229 108.09 140.913 108.096 139.6 108.027C138.192 107.924 136.753 107.903 135.35 107.76C133.829 107.602 132.014 108.046 131.079 109.327C129.936 110.874 130.741 113.385 131.758 114.756C133.058 116.516 134.777 117.949 136.599 119.147C138.611 120.469 140.492 120.997 142.857 121.304C147.053 121.842 150.829 120.134 153.718 117.161ZM127.375 68.8957C128.657 68.7056 129.327 67.4541 128.61 66.2902C127.51 64.5048 124.836 63.343 122.822 63.1231C121.833 63.0306 120.837 63.0687 119.858 63.2363C118.737 63.4071 117.509 63.8492 116.441 64.2528C115.668 64.5322 114.96 64.9635 114.357 65.5214C113.408 66.365 112.178 67.9048 113.752 68.8103C114.213 69.0751 114.799 69.0238 115.247 68.8786C116.968 68.3319 118.594 67.6229 120.435 67.6805C121.075 67.6997 121.701 67.5011 122.333 67.657C122.846 67.7809 123.388 67.9902 123.892 68.1674C125.007 68.5476 126.175 69.0708 127.375 68.8914V68.8957ZM124.23 87.4949C125.058 86.2456 125.545 84.646 125.255 83.1468C125.024 81.9572 124.003 80.4473 122.92 79.875C121.161 78.9438 119.031 79.8942 117.771 81.2311C115.422 83.7298 116.411 87.7256 119.775 88.6482C121.282 89.0582 123.309 88.8788 124.23 87.4906V87.4949Z" fill="#9F6341"/>
<path d="M36.2307 54.982C35.1308 55.4454 33.9413 56.3274 33.732 57.2906C33.6167 57.8117 33.7768 58.3584 33.6401 58.8817C33.4095 59.7359 32.4784 60.163 31.812 60.761C31.2582 61.2706 30.8674 61.9326 30.6888 62.6637C30.5103 63.3948 30.5518 64.1624 30.8083 64.87C31.2354 65.989 32.2007 66.9074 32.3267 68.099C32.4335 69.1092 31.9487 70.2988 32.6321 71.0505C33.2109 71.6912 34.2381 71.5417 35.0454 71.8407C36.0833 72.223 36.7048 73.3356 37.7149 73.7841C39.1757 74.4483 40.8415 73.5577 42.4454 73.4872C43.4171 73.4424 44.3674 73.7008 45.3391 73.8225C46.3109 73.9443 47.3594 73.8866 48.1347 73.2972C48.9889 72.6565 49.2922 71.531 49.9243 70.6725C50.5565 69.814 51.4577 69.2608 52.2735 68.5945C53.0893 67.9282 53.8325 67.059 53.9116 66.0147C54.0183 64.5966 52.8779 63.4135 52.4722 62.0509C52.2052 61.1604 52.2586 60.2079 52.1604 59.2746C52.0664 58.4075 51.7802 57.2671 50.879 56.9254C50.3878 56.7396 49.8496 56.7311 49.3435 56.6029C47.7353 56.1908 46.6611 54.6467 45.1298 54.0081C44.1453 53.596 43.0284 53.581 41.9819 53.7946C40.9974 53.9889 39.9979 54.6296 38.992 54.6488C37.9862 54.6681 37.1725 54.5698 36.2307 54.982Z" fill="white"/>
<path d="M134.043 364.111C133.287 361.84 133.34 359.542 132.939 357.176C131.973 351.487 131.337 345.746 130.829 340.001C130.587 337.257 130.735 334.195 130.122 331.514C129.635 329.379 129.481 327.369 129.364 325.167C128.744 314.569 126.923 304.074 123.935 293.887C124.057 294.619 124.174 295.356 124.279 296.097C125.438 304.281 126.036 312.541 126.414 320.785C126.429 321.125 126.446 321.464 126.461 321.804C126.653 326.054 126.792 330.304 126.927 334.551C127.194 342.91 127.424 351.117 127.395 359.498C127.375 365.729 127.149 371.959 126.846 378.182H135.943C135.803 376.309 135.548 374.434 135.29 372.583C134.914 369.87 134.897 366.708 134.043 364.111Z" fill="#EDEDED"/>
<path d="M182.255 191.507C181.686 188 181.443 184.51 180.574 181.042C178.865 174.259 175.779 167.647 170.483 162.934C168.525 161.191 165.842 160.348 163.931 158.727C164.203 160.03 164.318 161.36 164.275 162.69C164.126 165.206 163.463 167.664 162.327 169.913C160.11 174.366 156.234 178.056 151.583 179.865C150.666 180.222 149.759 180.632 148.83 180.957C147.112 181.532 145.3 181.776 143.491 181.674C141.674 181.559 139.874 181.262 138.117 180.786C135.256 180.023 132.868 179.242 130.429 177.458C126.762 174.767 123.922 170.838 122.777 166.409C122.336 164.856 122.288 163.218 122.638 161.642C122.789 160.847 122.861 160.04 122.852 159.231C122.288 159.805 121.079 160.482 120.398 161.097C116.093 164.986 113.91 171.628 111.943 176.924C108.313 186.669 107.578 197.078 107.488 207.387C107.401 217.905 108.056 228.376 109.705 238.781C110.579 244.368 111.752 249.904 113.218 255.366C116.744 268.421 121.699 280.52 123.926 293.887C126.914 304.074 128.735 314.568 129.355 325.167C129.483 327.369 129.626 329.389 130.113 331.514C130.726 334.195 130.579 337.257 130.82 340.001C131.328 345.746 131.965 351.487 132.93 357.176C133.331 359.542 133.278 361.84 134.034 364.111C134.901 366.707 134.914 369.877 135.292 372.583C135.55 374.434 135.805 376.309 135.945 378.182H169.383C169.462 369.524 169.575 360.805 168.804 352.221C168.164 345.003 167.769 337.753 167.963 330.504C168.123 324.55 167.651 318.513 167.852 312.516C168.065 305.806 169.518 299.134 169.793 292.396C170.007 287.371 170.861 282.51 171.929 277.598C173.148 271.962 173.071 266.155 174.611 260.534C176.17 254.858 177.815 249.216 178.946 243.4C179.972 238.112 180.602 232.78 181.684 227.518C184.142 215.596 184.202 203.522 182.255 191.507Z" fill="#FFFBF2"/>
<path d="M149.451 38.0546C149.333 38.0545 149.218 38.0194 149.119 37.9539C149.021 37.8883 148.944 37.7952 148.899 37.6862C148.853 37.5771 148.841 37.4571 148.863 37.341C148.885 37.225 148.941 37.1181 149.024 37.0338C153.392 32.6088 155.401 26.7828 156.794 21.685C156.812 21.6063 156.846 21.5321 156.893 21.4668C156.941 21.4014 157.001 21.3464 157.07 21.3049C157.139 21.2634 157.216 21.2362 157.296 21.2252C157.376 21.2141 157.458 21.2193 157.536 21.2404C157.614 21.2616 157.686 21.2982 157.75 21.3482C157.813 21.3982 157.866 21.4604 157.905 21.5313C157.944 21.6021 157.968 21.68 157.976 21.7604C157.984 21.8407 157.975 21.9219 157.951 21.999C155.388 31.368 152.439 35.2826 149.878 37.8774C149.823 37.934 149.756 37.9789 149.683 38.0093C149.61 38.0398 149.531 38.0552 149.451 38.0546Z" fill="black"/>
<path d="M159.094 38.2855C158.952 38.2852 158.815 38.235 158.707 38.1436C158.599 38.0523 158.527 37.9256 158.503 37.7861C158.479 37.6466 158.506 37.5032 158.577 37.3812C158.649 37.2592 158.762 37.1665 158.895 37.1194C162.023 36.0396 164.912 34.3651 167.403 32.1882C167.523 32.0832 167.68 32.03 167.839 32.0404C167.998 32.0508 168.146 32.124 168.251 32.2438C168.356 32.3636 168.41 32.5202 168.399 32.6792C168.389 32.8382 168.316 32.9865 168.196 33.0916C165.587 35.3684 162.564 37.1209 159.292 38.2534C159.228 38.2743 159.161 38.2851 159.094 38.2855Z" fill="black"/>
<path d="M131.548 32.4721C131.411 32.4718 131.279 32.4246 131.172 32.3383C131.066 32.2521 130.992 32.132 130.963 31.998C129.614 25.7513 126.111 21.0252 121.353 19.0326C121.28 19.002 121.214 18.9574 121.159 18.9013C121.103 18.8453 121.059 18.7788 121.029 18.7057C120.999 18.6326 120.984 18.5544 120.985 18.4754C120.985 18.3965 121.001 18.3184 121.032 18.2456C121.062 18.1729 121.107 18.1068 121.163 18.0513C121.219 17.9957 121.285 17.9518 121.358 17.9219C121.432 17.8921 121.51 17.8769 121.589 17.8773C121.668 17.8777 121.746 17.8937 121.819 17.9242C126.944 20.0727 130.705 25.1106 132.138 31.746C132.171 31.9015 132.141 32.0636 132.055 32.1972C131.969 32.3309 131.834 32.4251 131.679 32.4593C131.636 32.468 131.592 32.4723 131.548 32.4721Z" fill="black"/>
<path d="M111.345 32.1881C111.244 32.1876 111.144 32.1611 111.055 32.1112C107.424 30.0973 103.958 29.305 100.727 29.762C100.649 29.7729 100.569 29.7684 100.493 29.7486C100.417 29.7288 100.345 29.6942 100.282 29.6467C100.219 29.5992 100.166 29.5398 100.126 29.4718C100.086 29.4038 100.06 29.3286 100.049 29.2505C100.038 29.1724 100.043 29.0929 100.062 29.0166C100.082 28.9402 100.117 28.8685 100.164 28.8055C100.212 28.7426 100.271 28.6896 100.339 28.6496C100.407 28.6096 100.482 28.5834 100.56 28.5724C104.057 28.0813 107.783 28.9206 111.638 31.0647C111.755 31.1292 111.847 31.2306 111.899 31.3531C111.952 31.4755 111.962 31.6121 111.929 31.7411C111.895 31.8701 111.82 31.9843 111.714 32.0656C111.608 32.1469 111.479 32.1908 111.345 32.1902V32.1881Z" fill="black"/>
<path d="M144.64 99.9069C143.951 99.8947 143.271 99.7398 142.645 99.452C141.629 99.0428 140.697 98.4523 139.892 97.7094C139.796 97.5953 139.746 97.4496 139.752 97.3006C139.757 97.1516 139.818 97.01 139.922 96.9034C140.026 96.7968 140.167 96.7328 140.315 96.7238C140.464 96.7149 140.611 96.7617 140.727 96.8551C141.43 97.4941 142.243 98.0005 143.126 98.3501C143.722 98.6404 144.389 98.7531 145.048 98.6747C145.501 98.5991 145.942 98.4618 146.359 98.2668C146.929 98.0041 148.655 97.199 147.521 93.4787C147.145 92.2486 146.703 91.012 146.276 89.8182C145.885 88.7269 145.481 87.5971 145.127 86.4674C144.952 85.846 144.847 85.2071 144.813 84.5624C144.787 84.2677 144.764 83.9879 144.723 83.7082C144.416 81.5213 144.608 79.2661 144.86 77.1539C144.869 77.0757 144.894 77 144.932 76.9313C144.971 76.8626 145.023 76.8022 145.085 76.7535C145.147 76.7049 145.218 76.6689 145.294 76.6476C145.37 76.6263 145.449 76.6202 145.527 76.6296C145.605 76.639 145.681 76.6637 145.75 76.7024C145.818 76.741 145.879 76.7927 145.927 76.8547C145.976 76.9167 146.012 76.9876 146.033 77.0635C146.055 77.1394 146.061 77.2188 146.051 77.297C145.808 79.328 145.624 81.4892 145.913 83.5416C145.955 83.8555 145.983 84.1631 146.009 84.4599C146.035 85.0175 146.123 85.5704 146.271 86.1086C146.619 87.217 147.019 88.3339 147.405 89.4146C147.833 90.6233 148.285 91.8727 148.67 93.1306C149.859 97.0388 148.343 98.6832 146.863 99.3581C146.346 99.5995 145.799 99.7691 145.236 99.8621C145.038 99.8923 144.839 99.9073 144.64 99.9069Z" fill="white" fill-opacity="0.15"/>
<path d="M91.6335 103.574C91.5219 103.574 91.4125 103.543 91.3175 103.485C91.2225 103.426 91.1456 103.342 91.0953 103.243C90.7857 102.624 90.1962 102.224 89.5705 101.801C88.8465 101.312 88.0243 100.757 87.6356 99.7832C87.2469 98.8093 87.5117 97.891 87.7531 97.1093C87.8629 96.7891 87.9472 96.4606 88.0051 96.127C88.025 95.7922 87.9596 95.4578 87.815 95.1552C87.7509 94.9801 87.6847 94.8007 87.6292 94.6C87.4541 93.9593 87.296 93.5749 86.9244 93.2695C85.9677 92.4857 85.1134 92.0991 84.5197 92.1803C84.3539 92.2078 84.196 92.2707 84.0567 92.3647C83.9174 92.4586 83.8 92.5815 83.7124 92.7249C83.619 92.8506 83.4802 92.9348 83.3255 92.9596C83.1708 92.9843 83.0126 92.9476 82.8847 92.8573C82.7567 92.7669 82.6691 92.6302 82.6406 92.4761C82.6121 92.3221 82.645 92.1631 82.7322 92.0329C82.9128 91.7531 83.1513 91.5152 83.4316 91.3354C83.712 91.1556 84.0277 91.0381 84.3574 90.9908C85.3142 90.8626 86.4332 91.3154 87.6847 92.3426C88.3638 92.8979 88.603 93.6069 88.7867 94.2818C88.8294 94.4355 88.8828 94.585 88.9426 94.7452C89.1621 95.2329 89.2483 95.7701 89.1925 96.3021C89.1268 96.6967 89.0289 97.0852 88.8999 97.4639C88.6863 98.1707 88.5069 98.7282 88.7504 99.3389C88.9939 99.9497 89.5769 100.358 90.2453 100.808C90.9138 101.259 91.7211 101.806 92.1674 102.705C92.2127 102.796 92.2339 102.898 92.2292 103C92.2244 103.102 92.1938 103.201 92.1402 103.288C92.0866 103.375 92.0118 103.447 91.9228 103.497C91.8337 103.547 91.7335 103.573 91.6314 103.574H91.6335Z" fill="white" fill-opacity="0.15"/>
<path d="M188.6 104.287C188.507 104.288 188.415 104.266 188.333 104.223C188.262 104.188 188.199 104.139 188.148 104.08C188.096 104.02 188.056 103.951 188.031 103.876C188.006 103.801 187.996 103.723 188.002 103.644C188.008 103.565 188.028 103.488 188.064 103.418C188.527 102.495 189.345 101.949 190.046 101.468C190.746 100.988 191.327 100.599 191.594 99.9433C191.861 99.2876 191.658 98.6982 191.44 97.9956C191.308 97.6048 191.206 97.2042 191.137 96.7975C191.082 96.2516 191.171 95.7007 191.395 95.2C191.455 95.0356 191.513 94.8797 191.555 94.7217C191.746 94.0254 191.983 93.2993 192.687 92.727C193.969 91.672 195.126 91.2021 196.104 91.3367C196.442 91.3858 196.765 91.5065 197.052 91.6907C197.339 91.8748 197.583 92.1182 197.768 92.4045C197.855 92.5346 197.888 92.6937 197.86 92.8477C197.831 93.0017 197.744 93.1385 197.616 93.2288C197.488 93.3191 197.329 93.3559 197.175 93.3311C197.02 93.3064 196.881 93.2222 196.788 93.0964C196.695 92.9452 196.571 92.8158 196.423 92.7174C196.276 92.6189 196.109 92.5537 195.934 92.5262C195.314 92.4429 194.426 92.8423 193.435 93.656C193.046 93.9742 192.884 94.3714 192.7 95.0377C192.645 95.2513 192.576 95.4307 192.51 95.6101C192.373 95.9902 192.264 96.2892 192.311 96.6224C192.372 96.9674 192.459 97.3073 192.572 97.6389C192.822 98.4441 193.106 99.3474 192.696 100.387C192.286 101.428 191.487 101.934 190.705 102.463C190.065 102.89 189.448 103.318 189.125 103.958C189.075 104.055 189 104.137 188.908 104.195C188.815 104.253 188.709 104.285 188.6 104.287Z" fill="white" fill-opacity="0.15"/>
<path d="M72.3934 173.988C72.2796 173.987 72.1668 173.966 72.0603 173.926C72.0382 173.915 72.0142 173.909 71.9898 173.909C71.8348 173.892 71.6925 173.815 71.5931 173.695C71.4937 173.575 71.445 173.421 71.4572 173.265C71.4694 173.11 71.5416 172.965 71.6586 172.862C71.7755 172.759 71.928 172.705 72.0837 172.713C72.1965 172.72 72.3078 172.742 72.4148 172.779C72.4722 172.766 72.5312 172.762 72.5899 172.766C74.1831 172.884 75.5798 170.897 76.071 169.622C76.9039 167.5 77.1388 165.044 76.7629 162.319C76.4468 160.014 76.0347 157.62 74.781 156.01L74.072 155.087C73.9752 154.961 73.9326 154.801 73.9536 154.643C73.9746 154.485 74.0575 154.342 74.1841 154.245C74.3107 154.148 74.4706 154.105 74.6286 154.126C74.7866 154.147 74.9298 154.23 75.0266 154.357C75.2616 154.667 75.4965 154.973 75.7314 155.275C77.1644 157.129 77.615 159.692 77.9525 162.156C78.354 165.086 78.0956 167.745 77.1879 170.058C76.8037 171.034 76.2262 171.923 75.4901 172.67C74.5867 173.567 73.5872 174.015 72.5963 173.977C72.5291 173.986 72.4612 173.99 72.3934 173.988Z" fill="white" fill-opacity="0.15"/>
<path d="M51.6075 146.829C51.4845 146.826 51.3655 146.785 51.2664 146.712C51.1674 146.639 51.0932 146.538 51.0538 146.421C51.0144 146.305 51.0118 146.179 51.0463 146.061C51.0807 145.943 51.1507 145.838 51.2465 145.761C53.2668 144.261 55.6637 143.352 58.1703 143.134C58.3289 143.121 58.4864 143.171 58.6081 143.273C58.7299 143.376 58.8059 143.522 58.8195 143.681C58.8331 143.84 58.7831 143.997 58.6806 144.119C58.5781 144.241 58.4314 144.317 58.2728 144.33C55.9908 144.529 53.8085 145.356 51.9684 146.72C51.8629 146.794 51.7363 146.832 51.6075 146.829Z" fill="white" fill-opacity="0.15"/>
<path d="M63.8147 183.107C63.001 183.107 62.2386 182.893 61.6919 182.304C61.6034 182.244 61.5089 182.193 61.41 182.152C61.0854 182.003 60.5408 181.751 60.4874 181.123C60.4755 180.972 60.5211 180.822 60.6152 180.703C60.7093 180.584 60.8449 180.506 60.9946 180.483C61.1444 180.46 61.2973 180.494 61.4227 180.579C61.5481 180.664 61.6366 180.794 61.6705 180.941C61.7495 180.986 61.8308 181.027 61.914 181.063C62.1587 181.161 62.3816 181.306 62.5696 181.49C63.4687 182.453 66.008 181.578 67.1164 180.85C70.2131 178.782 72.4555 173.65 70.4971 168.213C70.2643 167.572 69.8073 166.932 69.3652 166.291C69.1922 166.048 69.015 165.798 68.8505 165.546C66.2408 161.573 63.6652 159.292 61.1922 158.765C58.5354 158.201 55.569 158.65 54.0378 158.968C53.96 158.986 53.8795 158.988 53.8009 158.974C53.7223 158.961 53.6472 158.931 53.58 158.888C53.5128 158.845 53.4548 158.789 53.4095 158.724C53.3642 158.658 53.3325 158.584 53.3162 158.506C53.2998 158.428 53.2992 158.347 53.3144 158.269C53.3296 158.19 53.3603 158.116 53.4046 158.05C53.4489 157.983 53.506 157.926 53.5726 157.882C53.6391 157.838 53.7138 157.808 53.7922 157.793C55.4174 157.456 58.5717 156.982 61.442 157.593C64.2739 158.195 67.0267 160.582 69.8521 164.888C70.0059 165.118 70.1703 165.351 70.3433 165.597C70.8324 166.282 71.3364 166.994 71.6247 167.799C73.2371 172.284 72.4384 178.731 67.7806 181.841C66.9669 182.377 65.3054 183.107 63.8147 183.107Z" fill="white" fill-opacity="0.15"/>
<path d="M55.7506 189.48C55.1872 189.473 54.6332 189.335 54.1332 189.075C53.6332 188.815 53.2011 188.442 52.8718 187.985C52.2699 187.21 51.8951 186.284 51.789 185.309C51.7713 184.935 51.7849 184.56 51.8296 184.188C51.8808 183.622 51.93 183.086 51.7356 182.669C51.2508 181.625 50.3581 180.903 49.412 180.138L49.0981 179.884C48.9746 179.783 48.8963 179.638 48.8802 179.479C48.8642 179.32 48.9119 179.162 49.0127 179.039C49.1135 178.915 49.2592 178.837 49.4178 178.821C49.5764 178.805 49.7349 178.852 49.8584 178.953L50.1659 179.205C51.1782 180.021 52.2225 180.867 52.8248 182.165C53.1537 182.874 53.0853 183.628 53.0234 184.301C52.9867 184.608 52.9746 184.918 52.9871 185.228C53.0748 185.969 53.3644 186.672 53.8243 187.261C54.7127 188.42 56.0496 188.615 57.316 187.771C59.5179 186.304 60.4063 183.231 60.5024 180.845C60.5373 179.515 60.346 178.188 59.9364 176.922C59.4944 175.487 58.3176 174.293 57.1793 173.14L56.906 172.862C55.6774 171.572 54.1797 170.569 52.5194 169.924C52.3704 169.867 52.2501 169.754 52.1848 169.608C52.1195 169.463 52.1146 169.297 52.1713 169.148C52.2279 168.999 52.3414 168.879 52.4868 168.814C52.6322 168.749 52.7976 168.744 52.9465 168.8C54.7732 169.508 56.4208 170.61 57.7709 172.029L58.0421 172.305C59.2253 173.503 60.5643 174.868 61.0918 176.576C61.5377 177.97 61.7442 179.429 61.7026 180.892C61.5617 184.365 60.1692 187.299 57.9802 188.768C57.3242 189.222 56.548 189.47 55.7506 189.48Z" fill="white" fill-opacity="0.15"/>
<path d="M62.9583 190.708C62.899 190.707 62.84 190.699 62.7831 190.682C62.6312 190.636 62.5038 190.531 62.429 190.391C62.3541 190.251 62.3379 190.087 62.3838 189.934C63.2637 187.036 64.3058 184.873 65.7688 182.919C66.0314 182.571 66.2664 182.248 66.4991 181.932C66.8387 181.469 67.1612 181.031 67.5435 180.531C67.5898 180.465 67.6491 180.408 67.7178 180.365C67.7865 180.322 67.8633 180.293 67.9434 180.281C68.0235 180.268 68.1053 180.272 68.1839 180.292C68.2625 180.312 68.3363 180.348 68.4007 180.397C68.4651 180.446 68.5189 180.508 68.5588 180.579C68.5986 180.649 68.6238 180.727 68.6327 180.808C68.6416 180.889 68.6341 180.97 68.6106 181.048C68.5871 181.125 68.5481 181.197 68.496 181.26C68.1222 181.751 67.804 182.184 67.4666 182.641C67.2317 182.962 66.9946 183.282 66.7298 183.639C65.3544 185.475 64.3806 187.523 63.5263 190.283C63.4891 190.405 63.414 190.512 63.3118 190.588C63.2097 190.664 63.0858 190.706 62.9583 190.708Z" fill="white" fill-opacity="0.15"/>
<path d="M56.7329 336.527C56.6863 336.527 56.6397 336.522 56.5941 336.512C56.5174 336.493 56.445 336.46 56.3811 336.414C56.3173 336.367 56.2632 336.309 56.2219 336.242C56.1806 336.174 56.1531 336.1 56.1407 336.022C56.1284 335.944 56.1315 335.864 56.1499 335.788C56.8525 332.836 57.4078 329.836 57.9438 326.933C58.2023 325.528 58.4479 324.202 58.7105 322.876C59.5797 318.468 60.4959 313.981 61.3844 309.635C64.0838 296.421 66.8772 282.76 68.7544 269.271C69.0086 267.361 69.3845 265.468 69.8799 263.605C70.3284 262.075 70.8661 260.573 71.4902 259.106C72.5024 256.592 73.4571 254.215 73.5703 251.58C73.692 248.682 73.2627 245.801 72.8463 243.016C72.3038 239.385 71.7422 235.616 72.3551 231.663C72.8143 228.716 73.6706 226.176 74.4907 223.718C76.1159 218.898 77.5169 214.734 75.6077 208.822C75.518 208.545 75.4496 208.263 75.3813 207.991C75.1848 207.197 75.014 206.509 74.4373 206.195C74.3636 206.16 74.2977 206.111 74.2438 206.049C74.1899 205.988 74.149 205.917 74.1237 205.839C74.0984 205.761 74.0892 205.679 74.0967 205.598C74.1041 205.517 74.1281 205.438 74.167 205.366C74.206 205.295 74.2592 205.232 74.3234 205.181C74.3875 205.131 74.4613 205.094 74.5401 205.073C74.619 205.052 74.7013 205.047 74.7821 205.059C74.8628 205.071 74.9403 205.1 75.0097 205.142C76.0519 205.708 76.3146 206.768 76.5473 207.705C76.6114 207.968 76.6733 208.218 76.7609 208.455C78.7919 214.744 77.2606 219.291 75.6397 224.105C74.8282 226.514 73.9888 229.004 73.5468 231.849C72.9595 235.622 73.5083 239.291 74.038 242.841C74.4651 245.683 74.8922 248.62 74.7726 251.633C74.653 254.476 73.613 257.058 72.6071 259.556C72.0022 260.981 71.4802 262.439 71.0438 263.924C70.5595 265.737 70.1928 267.579 69.9461 269.44C68.0646 282.976 65.2691 296.656 62.5632 309.889C61.6769 314.224 60.7607 318.709 59.8915 323.113C59.631 324.43 59.3875 325.754 59.127 327.155C58.5888 330.073 58.0314 333.09 57.3224 336.07C57.2898 336.201 57.2139 336.317 57.1069 336.4C57 336.483 56.8682 336.528 56.7329 336.527Z" fill="#2E5378"/>
<path d="M55.6417 246.044C55.5624 246.044 55.4837 246.029 55.4104 245.998C55.3371 245.968 55.2705 245.923 55.2146 245.867C50.1062 240.741 45.5551 235.08 40.2887 228.154C40.1924 228.027 40.1504 227.867 40.1721 227.709C40.1937 227.551 40.2771 227.409 40.404 227.312C40.5309 227.216 40.6908 227.174 40.8486 227.196C41.0064 227.217 41.1491 227.301 41.2454 227.428C46.4799 234.315 51.0053 239.942 56.0646 245.019C56.1479 245.103 56.2044 245.21 56.227 245.327C56.2496 245.443 56.2373 245.564 56.1917 245.673C56.1461 245.783 56.0691 245.876 55.9705 245.942C55.872 246.008 55.7561 246.044 55.6375 246.044H55.6417Z" fill="#2E5378"/>
<path d="M45.931 259.633C43.1098 259.633 40.1157 259.103 36.7862 258.029C36.7105 258.006 36.6401 257.967 36.5792 257.917C36.5183 257.866 36.4681 257.803 36.4315 257.733C36.3949 257.662 36.3726 257.585 36.3659 257.506C36.3592 257.427 36.3683 257.348 36.3926 257.272C36.4169 257.197 36.4559 257.127 36.5074 257.066C36.5589 257.006 36.6218 256.957 36.6926 256.921C36.7634 256.885 36.8405 256.863 36.9197 256.857C36.9988 256.852 37.0783 256.861 37.1536 256.887C42.23 258.525 46.4713 258.851 50.4991 257.914C50.6543 257.878 50.8176 257.904 50.9529 257.989C51.0883 258.073 51.1847 258.207 51.221 258.362C51.2572 258.517 51.2303 258.681 51.1462 258.816C51.0621 258.951 50.9277 259.048 50.7725 259.084C49.185 259.452 47.5605 259.636 45.931 259.633Z" fill="#2E5378"/>
<path d="M225.888 379C225.809 378.999 225.731 378.983 225.658 378.953C225.586 378.922 225.52 378.877 225.465 378.821C225.409 378.765 225.366 378.699 225.336 378.626C225.306 378.553 225.291 378.474 225.292 378.396C225.33 374.272 224.967 370.015 224.617 365.9C224.312 362.325 223.998 358.639 223.947 355.038C223.853 348.418 223.519 341.701 223.195 335.198C223.079 332.849 222.958 330.434 222.851 328.05C222.21 313.955 221.251 300.537 219.906 287.046C218.488 272.827 217.285 258.918 218.146 245.072C218.768 235.052 220.976 224.357 224.893 212.378C224.944 212.229 225.052 212.106 225.193 212.036C225.334 211.965 225.497 211.953 225.647 212.003C225.797 212.052 225.921 212.158 225.994 212.298C226.066 212.438 226.08 212.601 226.033 212.752C222.148 224.634 219.959 235.229 219.344 245.145C218.49 258.903 219.686 272.759 221.1 286.926C222.447 300.439 223.413 313.872 224.049 327.997C224.158 330.376 224.278 332.798 224.395 335.138C224.717 341.652 225.053 348.379 225.147 355.021C225.198 358.568 225.51 362.244 225.813 365.797C226.165 369.943 226.531 374.227 226.492 378.398C226.492 378.477 226.477 378.556 226.447 378.629C226.416 378.702 226.372 378.769 226.316 378.825C226.259 378.881 226.193 378.925 226.119 378.955C226.046 378.985 225.967 379.001 225.888 379Z" fill="#2E5378"/>
<path d="M244.212 355.818C244.086 355.82 243.964 355.783 243.861 355.712C243.758 355.641 243.679 355.539 243.637 355.422C243.594 355.304 243.589 355.176 243.623 355.056C243.657 354.935 243.727 354.828 243.825 354.75C250.183 349.394 254.636 344.046 257.066 338.859C257.098 338.786 257.145 338.72 257.203 338.665C257.261 338.61 257.33 338.568 257.404 338.54C257.479 338.512 257.559 338.499 257.638 338.502C257.718 338.506 257.796 338.525 257.869 338.558C257.941 338.592 258.006 338.64 258.059 338.699C258.113 338.758 258.154 338.828 258.181 338.903C258.207 338.978 258.218 339.058 258.213 339.138C258.209 339.217 258.188 339.295 258.153 339.367C255.652 344.706 251.093 350.199 244.6 355.668C244.493 355.763 244.355 355.816 244.212 355.818Z" fill="#2E5378"/>
<path d="M46.8897 95.4028C46.8033 95.4031 46.7177 95.3864 46.6377 95.3537C46.3729 95.2469 46.1102 95.1252 45.8561 95.0056C45.5097 94.8323 45.1531 94.6804 44.7882 94.5507C42.911 93.9357 41.0317 93.1369 39.2142 92.366L38.6889 92.1417C38.5278 92.0696 38.4015 91.9372 38.3369 91.7729C38.2723 91.6087 38.2746 91.4257 38.3433 91.2632C38.412 91.1006 38.5416 90.9714 38.7044 90.9033C38.8672 90.8352 39.0502 90.8336 39.2142 90.8988L39.7417 91.1124C41.5335 91.8726 43.3851 92.6607 45.209 93.2587C45.627 93.405 46.0357 93.5769 46.4327 93.7734C46.6804 93.8887 46.9153 93.9997 47.1438 94.0916C47.289 94.1502 47.4093 94.2575 47.4841 94.3951C47.5588 94.5327 47.5834 94.692 47.5536 94.8457C47.5238 94.9994 47.4415 95.138 47.3208 95.2377C47.2001 95.3374 47.0484 95.392 46.8918 95.3922L46.8897 95.4028Z" fill="#A19086"/>
<path d="M47.8551 92.2357C47.7002 92.229 47.5477 92.195 47.4045 92.1353L47.349 92.1161C47.0863 92.0285 46.8664 91.9474 46.6699 91.8684L46.5182 91.8064C46.1736 91.6517 45.8163 91.5267 45.4504 91.4327C43.6672 91.0056 41.886 90.4268 40.1626 89.8587C39.5967 89.6729 39.0329 89.4871 38.4733 89.3077C38.3164 89.2433 38.1895 89.1221 38.118 88.9683C38.0464 88.8145 38.0353 88.6394 38.087 88.4778C38.1387 88.3163 38.2494 88.1801 38.397 88.0964C38.5445 88.0128 38.7182 87.9877 38.8834 88.0263C39.4472 88.2057 40.0152 88.3937 40.5919 88.5816C42.2897 89.139 44.043 89.7178 45.7686 90.1235C46.2072 90.2289 46.6359 90.3718 47.05 90.5507L47.1995 90.6126C47.3661 90.6809 47.5626 90.7514 47.7954 90.8262L47.853 90.8475C47.9995 90.8391 48.1447 90.8787 48.2665 90.9605C48.3884 91.0422 48.4801 91.1615 48.5279 91.3003C48.5732 91.4248 48.5816 91.5598 48.5521 91.689C48.5225 91.8182 48.4563 91.9361 48.3613 92.0285C48.2963 92.0968 48.2176 92.1505 48.1304 92.1862C48.0431 92.2219 47.9493 92.2388 47.8551 92.2357Z" fill="#A19086"/>
<path d="M48.0624 89.594C47.7904 89.5749 47.5302 89.4752 47.3149 89.3079C47.2807 89.2844 47.2487 89.2609 47.2188 89.2438C46.2364 88.7483 45.1878 88.4622 44.0773 88.161C43.6672 88.0478 43.2422 87.9325 42.8215 87.8065C42.5268 87.7168 39.7975 86.7921 38.6378 86.286C38.5548 86.2517 38.4794 86.2012 38.4162 86.1375C38.3529 86.0738 38.303 85.9981 38.2693 85.9148C38.2357 85.8315 38.219 85.7424 38.2203 85.6526C38.2215 85.5628 38.2407 85.4741 38.2767 85.3918C38.3126 85.3095 38.3647 85.2352 38.4297 85.1733C38.4947 85.1114 38.5715 85.0631 38.6554 85.0312C38.7394 84.9993 38.8289 84.9845 38.9186 84.9876C39.0084 84.9907 39.0966 85.0117 39.1781 85.0494C40.2694 85.5257 42.939 86.4312 43.2123 86.5145C43.6138 86.6362 44.0303 86.7494 44.4318 86.8583C45.5594 87.1637 46.7255 87.4819 47.8296 88.0414C47.9128 88.0847 47.9927 88.1339 48.0688 88.1888L48.1393 88.2336C48.2986 88.2348 48.4525 88.2923 48.5735 88.396C48.6946 88.4997 48.775 88.6429 48.8006 88.8002C48.8262 88.9575 48.7953 89.1188 48.7133 89.2555C48.6313 89.3922 48.5036 89.4955 48.3528 89.5471C48.2594 89.5794 48.1612 89.5953 48.0624 89.594Z" fill="#A19086"/>
<path d="M44.6602 85.1347C44.5717 85.1341 44.4842 85.1161 44.4026 85.0816C44.3211 85.0472 44.2471 84.997 44.185 84.9339C44.1229 84.8708 44.0739 84.7961 44.0407 84.714C44.0076 84.6319 43.9909 84.5441 43.9918 84.4556C43.9918 83.0247 44.3207 81.6088 44.6325 80.2377C44.8097 79.4518 44.9763 78.7086 45.0916 77.9654C45.1813 77.3695 45.2646 76.7673 45.35 76.1608C45.6789 73.7753 46.0206 71.3065 46.8599 69.0192C46.9219 68.8505 46.9838 68.6861 47.0479 68.5259C46.584 68.4302 46.1284 68.2981 45.6853 68.1308C44.5607 67.7355 43.5568 67.0574 42.7702 66.1617C42.5758 66.3518 42.3708 66.5227 42.1786 66.6828C42.0654 66.7768 41.9501 66.8729 41.8433 66.969C41.3334 67.4685 40.7304 67.8632 40.0686 68.1308C39.6249 68.2984 39.1686 68.4305 38.7039 68.5259C38.768 68.6861 38.8321 68.8505 38.894 69.0192C39.7312 71.3065 40.0729 73.7753 40.4039 76.1608C40.4872 76.7673 40.5705 77.3695 40.6623 77.9654C40.8011 78.873 41.004 79.7977 41.2005 80.6926C41.4921 81.9078 41.7153 83.1384 41.869 84.3787C41.8819 84.4685 41.8766 84.56 41.8534 84.6477C41.8302 84.7354 41.7896 84.8175 41.7339 84.8892C41.6783 84.9608 41.6087 85.0205 41.5294 85.0647C41.4502 85.1088 41.3628 85.1366 41.2726 85.1462C41.1824 85.1558 41.0912 85.1472 41.0044 85.1207C40.9176 85.0943 40.837 85.0506 40.7675 84.9923C40.6979 84.934 40.6409 84.8623 40.5997 84.7815C40.5585 84.7006 40.534 84.6123 40.5278 84.5218C40.3791 83.3314 40.1652 82.15 39.8871 80.983C39.6863 80.0668 39.477 79.1207 39.3318 78.1683C39.24 77.5681 39.1546 76.9574 39.0713 76.3466C38.7509 74.0294 38.4178 71.6354 37.6297 69.4826C37.5208 69.1836 37.4162 68.9017 37.288 68.6284C36.1839 68.6711 34.8342 68.6134 34.0995 67.8019C33.8155 67.488 33.5058 66.922 33.651 66.0101C33.7963 65.0982 34.3216 64.7565 34.6185 64.6476C35.1737 64.434 35.8401 64.6284 36.4466 65.1494C37.1176 65.7392 37.6774 66.4444 38.0996 67.2317H38.1465C38.6539 67.1701 39.1508 67.0415 39.6244 66.8494C40.119 66.6387 40.5686 66.335 40.9485 65.9546C41.0681 65.8478 41.1941 65.741 41.3222 65.6364C41.5511 65.4556 41.7653 65.2571 41.9629 65.0427C41.5008 64.2502 41.1813 63.3828 41.019 62.4799C40.8054 61.2968 40.9399 59.7036 42.0462 59.0864C42.2172 58.9872 42.4113 58.9349 42.6089 58.9349C42.8066 58.9349 43.0007 58.9872 43.1717 59.0864C44.137 59.6438 44.2395 61.5744 44.2395 61.5936C44.287 62.7686 44.0603 63.9384 43.5775 65.0106C44.2372 65.8576 45.1269 66.4967 46.1402 66.8515C46.6139 67.0434 47.1108 67.172 47.6181 67.2338H47.6651C48.0874 66.4473 48.6473 65.7428 49.318 65.1537C49.9246 64.6305 50.5994 64.4468 51.1483 64.6497C51.4451 64.7586 51.9641 65.0768 52.1136 66.0122C52.2631 66.9476 51.9513 67.4901 51.6672 67.804C50.9304 68.6156 49.5807 68.6732 48.4787 68.6305C48.3591 68.8953 48.2459 69.1772 48.1349 69.4848C47.3468 71.6375 47.0158 74.0315 46.6955 76.3487C46.6101 76.9595 46.5268 77.5703 46.4349 78.1704C46.3132 78.9627 46.1317 79.7636 45.9565 80.5388C45.6618 81.8394 45.3586 83.1827 45.35 84.4684C45.3467 84.6481 45.2722 84.8192 45.1428 84.9441C45.0135 85.069 44.84 85.1375 44.6602 85.1347ZM50.6549 65.914C50.4776 65.9591 50.3155 66.0505 50.1851 66.1788C49.8108 66.5048 49.4806 66.8781 49.2027 67.2893C49.8092 67.2723 50.3987 67.1804 50.6507 66.9007C50.6977 66.8494 50.8407 66.6871 50.766 66.2301C50.7591 66.1168 50.7215 66.0075 50.6571 65.914H50.6549ZM35.0648 65.914C35.0145 66.0099 34.9819 66.1141 34.9687 66.2215C34.8961 66.685 35.0371 66.8409 35.084 66.8921C35.3382 67.1719 35.9255 67.2637 36.532 67.2808C36.2541 66.8696 35.9239 66.4962 35.5496 66.1703C35.4196 66.0391 35.2514 65.9524 35.0691 65.9225L35.0648 65.914ZM42.5673 60.3614C42.2811 60.6945 42.2128 61.5381 42.3388 62.2258C42.4157 62.6491 42.5337 63.064 42.6912 63.4644C42.8329 62.8557 42.8961 62.2313 42.8791 61.6064C42.8487 61.1796 42.7447 60.7612 42.5716 60.3699L42.5673 60.3614Z" fill="#A84216"/>
<path d="M115.623 297.455C115.479 297.455 115.339 297.404 115.23 297.31C115.121 297.216 115.05 297.085 115.029 296.942C114.1 290.634 112.266 284.603 110.596 279.535C110.017 277.779 109.314 275.975 108.642 274.228C107.185 270.465 105.679 266.574 105.111 262.61C105.097 262.531 105.1 262.45 105.118 262.371C105.136 262.293 105.169 262.219 105.216 262.154C105.264 262.089 105.323 262.034 105.392 261.992C105.461 261.951 105.537 261.924 105.617 261.912C105.696 261.901 105.778 261.905 105.855 261.926C105.933 261.946 106.006 261.982 106.069 262.031C106.133 262.08 106.186 262.142 106.226 262.212C106.265 262.282 106.29 262.359 106.299 262.439C106.848 266.266 108.328 270.093 109.761 273.794C110.442 275.554 111.147 277.376 111.736 279.159C113.423 284.285 115.275 290.369 116.221 296.767C116.232 296.845 116.228 296.925 116.209 297.001C116.19 297.078 116.156 297.15 116.109 297.213C116.062 297.276 116.003 297.329 115.935 297.37C115.868 297.41 115.793 297.437 115.715 297.449L115.623 297.455Z" fill="#2E5378"/>
<path d="M228.284 208.386C228.206 208.386 228.13 208.371 228.058 208.342C227.985 208.312 227.918 208.268 227.862 208.212C227.806 208.157 227.761 208.091 227.731 208.018C227.7 207.945 227.684 207.867 227.684 207.788C227.684 207.709 227.699 207.631 227.729 207.558C228.703 205.172 230.078 202.994 231.423 200.89C232.329 199.464 233.267 197.99 234.048 196.491C234.084 196.421 234.134 196.359 234.195 196.308C234.255 196.257 234.325 196.218 234.4 196.194C234.475 196.171 234.555 196.162 234.633 196.168C234.712 196.175 234.789 196.197 234.859 196.234C234.929 196.27 234.991 196.32 235.042 196.38C235.093 196.44 235.131 196.51 235.155 196.586C235.179 196.661 235.188 196.74 235.181 196.819C235.174 196.897 235.152 196.974 235.116 197.044C234.311 198.59 233.36 200.087 232.442 201.529C231.131 203.59 229.777 205.721 228.844 208.008C228.799 208.12 228.722 208.216 228.622 208.283C228.522 208.351 228.404 208.387 228.284 208.386Z" fill="#2E5378"/>
</g>
<defs>
<clipPath id="clip0_31_7669">
<rect width="271.64" height="379" fill="white"/>
</clipPath>
</defs>
</svg>
